<?xml version="1.0" standalone="no"?>
<!DOCTYPE svg PUBLIC "-//W3C//DTD SVG 20010904//EN"
 "http://www.w3.org/TR/2001/REC-SVG-20010904/DTD/svg10.dtd">
<svg version="1.0" xmlns="http://www.w3.org/2000/svg"
 width="300.000000pt" height="188.000000pt" viewBox="0 0 300.000000 188.000000"
 preserveAspectRatio="xMidYMid meet">

<g transform="translate(0.000000,188.000000) scale(0.100000,-0.100000)"
fill="#ffffff" stroke="none">
<path d="M1349 1830 l-24 -20 27 13 c16 6 28 15 28 20 0 11 -6 9 -31 -13z"/>
<path d="M1540 1829 c0 -5 9 -9 20 -9 11 0 20 2 20 4 0 2 -9 6 -20 9 -11 3
-20 1 -20 -4z"/>
<path d="M1695 1828 c11 -6 30 -21 42 -33 16 -17 29 -22 45 -17 l23 7 -25 3
c-13 2 -37 15 -53 28 -16 13 -34 24 -40 24 -7 0 -3 -6 8 -12z"/>
<path d="M1280 1785 c-14 -8 -20 -14 -14 -15 5 0 19 7 30 15 24 18 16 19 -16
0z"/>
<path d="M1193 1771 c-25 -21 -30 -33 -10 -25 10 4 43 45 35 44 -2 -1 -13 -9
-25 -19z"/>
<path d="M1811 1778 c2 -2 20 -16 39 -33 l35 -30 -29 33 c-17 17 -34 32 -40
32 -5 0 -7 -1 -5 -2z"/>
<path d="M1800 1725 c19 -19 36 -35 39 -35 3 0 -10 16 -29 35 -19 19 -36 35
-39 35 -3 0 10 -16 29 -35z"/>
<path d="M1118 1743 c7 -3 16 -2 19 1 4 3 -2 6 -13 5 -11 0 -14 -3 -6 -6z"/>
<path d="M1050 1705 c-13 -14 -22 -27 -19 -29 2 -2 14 10 27 25 29 36 24 38
-8 4z"/>
<path d="M1149 1713 c-13 -16 -12 -17 4 -4 9 7 17 15 17 17 0 8 -8 3 -21 -13z"/>
<path d="M1900 1655 c7 -8 17 -12 22 -9 6 4 5 10 -3 15 -22 14 -33 10 -19 -6z"/>
<path d="M1013 1645 c-8 -23 0 -24 20 -3 14 15 15 18 2 18 -9 0 -18 -7 -22
-15z"/>
<path d="M1995 1610 c10 -11 20 -20 23 -20 3 0 -3 9 -13 20 -10 11 -20 20 -23
20 -3 0 3 -9 13 -20z"/>
<path d="M950 1600 c-6 -11 -8 -20 -6 -20 3 0 10 9 16 20 6 11 8 20 6 20 -3 0
-10 -9 -16 -20z"/>
<path d="M1620 1590 c-6 -11 -30 -29 -53 -41 -84 -42 -128 -102 -129 -173 -1
-50 18 -82 79 -132 55 -45 77 -91 63 -129 -15 -40 -13 -41 20 -10 38 37 65
105 56 146 -4 20 -30 58 -71 100 -72 77 -83 115 -46 160 l19 23 36 -32 c63
-55 149 -33 192 49 20 40 12 46 -19 15 -15 -14 -36 -26 -47 -26 -20 0 -70 44
-70 61 0 16 -19 9 -30 -11z m20 -359 c-1 -14 -7 -39 -14 -56 l-14 -30 -10 26
c-5 14 -22 39 -36 56 -21 24 -23 32 -12 36 10 4 13 1 9 -9 -8 -21 11 -17 32 6
23 25 45 10 45 -29z"/>
<path d="M1945 1591 c19 -23 75 -66 75 -59 0 2 -21 21 -47 43 -27 21 -39 28
-28 16z"/>
<path d="M962 1519 c-13 -16 -28 -27 -33 -23 -5 3 -9 0 -9 -7 0 -7 -15 -29
-32 -48 l-33 -35 35 30 c42 35 104 103 99 108 -2 2 -14 -10 -27 -25z"/>
<path d="M2030 1531 c0 -5 14 -23 30 -39 17 -17 30 -28 30 -25 0 3 -13 21 -30
40 -16 18 -30 29 -30 24z"/>
<path d="M1704 1445 c-4 -9 -4 -53 -1 -97 4 -50 2 -88 -4 -100 -8 -14 -8 -23
0 -31 6 -6 11 -51 11 -109 0 -118 1 -118 -131 -58 -49 22 -112 43 -142 46
-143 17 -287 -67 -287 -169 0 -29 35 -83 73 -111 34 -25 138 -34 192 -16 40
13 105 72 105 95 0 8 -18 -5 -39 -28 -39 -41 -40 -42 -119 -45 -101 -5 -163
19 -188 71 -35 74 24 137 128 137 49 0 78 -8 172 -50 124 -55 177 -62 244 -35
45 19 77 48 108 97 35 54 30 56 -21 9 -67 -62 -79 -55 -83 48 -2 49 2 97 9
113 9 21 9 31 -1 42 -8 11 -10 40 -5 104 5 62 4 91 -4 96 -6 4 -14 0 -17 -9z
m-158 -405 c51 -22 118 -43 149 -46 67 -8 61 -26 -15 -44 -56 -13 -73 -9 -215
54 -44 20 -102 39 -130 43 l-50 6 30 13 c59 25 130 17 231 -26z"/>
<path d="M2041 1424 c0 -11 3 -14 6 -6 3 7 2 16 -1 19 -3 4 -6 -2 -5 -13z"/>
<path d="M891 1363 c-10 -26 -10 -27 4 -9 8 11 15 23 15 28 0 15 -7 8 -19 -19z"/>
<path d="M842 1350 c0 -19 2 -27 5 -17 2 9 2 25 0 35 -3 9 -5 1 -5 -18z"/>
<path d="M2069 1357 c8 -10 14 -32 14 -50 -1 -25 1 -28 6 -12 7 18 9 17 24
-10 9 -17 16 -25 17 -20 0 6 -9 24 -20 40 -11 17 -18 39 -15 50 3 11 2 14 -1
7 -5 -10 -9 -10 -22 0 -15 12 -16 11 -3 -5z"/>
<path d="M847 1291 c-4 -17 -3 -21 5 -13 5 5 8 16 6 23 -3 8 -7 3 -11 -10z"/>
<path d="M2081 1234 c0 -11 3 -14 6 -6 3 7 2 16 -1 19 -3 4 -6 -2 -5 -13z"/>
<path d="M883 1170 c0 -25 2 -35 4 -22 2 12 2 32 0 45 -2 12 -4 2 -4 -23z"/>
<path d="M2104 1148 c1 -33 11 -37 19 -8 3 11 1 18 -3 15 -5 -3 -10 1 -13 7
-2 7 -4 1 -3 -14z"/>
<path d="M867 1100 c3 -11 9 -20 13 -20 5 0 12 -9 15 -21 4 -11 9 -18 12 -15
5 5 -34 76 -42 76 -2 0 -1 -9 2 -20z"/>
<path d="M2060 1059 c-7 -11 -10 -23 -7 -25 2 -2 9 7 15 21 14 30 7 33 -8 4z"/>
<path d="M862 1020 c0 -14 2 -19 5 -12 2 6 2 18 0 25 -3 6 -5 1 -5 -13z"/>
<path d="M2041 1004 c0 -11 3 -14 6 -6 3 7 2 16 -1 19 -3 4 -6 -2 -5 -13z"/>
<path d="M2070 986 c-14 -12 -38 -38 -55 -57 -16 -19 -4 -9 28 21 52 49 62 61
55 60 -2 0 -14 -11 -28 -24z"/>
<path d="M920 948 c0 -20 -1 -21 -20 -3 -31 28 -24 12 8 -18 l28 -27 -4 35
c-5 39 -12 47 -12 13z"/>
<path d="M2032 900 c0 -14 2 -19 5 -12 2 6 2 18 0 25 -3 6 -5 1 -5 -13z"/>
<path d="M950 896 c0 -2 8 -10 18 -17 15 -13 16 -12 3 4 -13 16 -21 21 -21 13z"/>
<path d="M1975 879 c-4 -6 -5 -12 -2 -15 2 -3 7 2 10 11 7 17 1 20 -8 4z"/>
<path d="M1005 850 c10 -11 20 -20 23 -20 3 0 -3 9 -13 20 -10 11 -20 20 -23
20 -3 0 3 -9 13 -20z"/>
<path d="M1989 813 l-24 -28 28 24 c25 23 32 31 24 31 -2 0 -14 -12 -28 -27z"/>
<path d="M950 826 c0 -2 8 -10 18 -17 15 -13 16 -12 3 4 -13 16 -21 21 -21 13z"/>
<path d="M1050 778 c0 -10 5 -18 10 -18 6 0 10 -6 10 -14 0 -8 4 -18 10 -21 6
-3 7 1 4 9 -8 20 5 20 36 0 l25 -16 -24 21 c-13 12 -29 21 -37 21 -7 0 -18 8
-23 18 -10 16 -10 16 -11 0z"/>
<path d="M1930 780 c-13 -8 -13 -10 2 -10 9 0 20 5 23 10 8 13 -5 13 -25 0z"/>
<path d="M1910 728 c-15 -21 -17 -28 -6 -19 16 13 41 51 33 51 -2 0 -14 -15
-27 -32z"/>
<path d="M1799 703 c-61 -67 -94 -108 -76 -94 19 15 121 131 115 131 -2 0 -20
-17 -39 -37z"/>
<path d="M1100 690 c6 -11 13 -20 16 -20 2 0 0 9 -6 20 -6 11 -13 20 -16 20
-2 0 0 -9 6 -20z"/>
<path d="M1175 680 c10 -11 20 -20 23 -20 3 0 -3 9 -13 20 -10 11 -20 20 -23
20 -3 0 3 -9 13 -20z"/>
<path d="M1728 663 c7 -3 16 -2 19 1 4 3 -2 6 -13 5 -11 0 -14 -3 -6 -6z"/>
<path d="M1205 640 c3 -5 11 -10 16 -10 6 0 7 5 4 10 -3 6 -11 10 -16 10 -6 0
-7 -4 -4 -10z"/>
<path d="M1380 614 c0 -2 9 -8 20 -14 11 -6 20 -7 20 -2 0 6 -9 12 -20 15 -11
3 -20 3 -20 1z"/>
<path d="M1458 613 c12 -2 32 -2 45 0 12 2 2 4 -23 4 -25 0 -35 -2 -22 -4z"/>
<path d="M1625 611 c-6 -5 -19 -11 -30 -13 -13 -2 -16 -6 -9 -11 7 -4 23 2 35
13 13 11 22 19 19 20 -4 0 -10 -4 -15 -9z"/>
<path d="M1257 599 c7 -7 15 -10 18 -7 3 3 -2 9 -12 12 -14 6 -15 5 -6 -5z"/>
<path d="M1308 583 c6 -2 18 -2 25 0 6 3 1 5 -13 5 -14 0 -19 -2 -12 -5z"/>
<path d="M1638 583 c6 -2 18 -2 25 0 6 3 1 5 -13 5 -14 0 -19 -2 -12 -5z"/>
<path d="M10 299 l0 -110 52 3 c41 2 54 7 56 21 3 14 -4 17 -32 17 l-36 0 0
90 c0 83 -1 90 -20 90 -19 0 -20 -7 -20 -111z"/>
<path d="M147 404 c-12 -13 -8 -189 5 -202 16 -16 73 -15 87 2 8 9 11 47 9
107 l-3 94 -45 3 c-25 2 -49 0 -53 -4z m65 -99 c0 -56 -3 -71 -16 -73 -14 -3
-16 8 -16 73 0 65 2 76 16 73 13 -2 16 -17 16 -73z"/>
<path d="M284 397 c-3 -8 -4 -34 -2 -58 3 -42 5 -44 36 -47 28 -3 32 -7 32
-33 0 -19 -5 -29 -15 -29 -8 0 -15 7 -15 15 0 8 -9 15 -20 15 -14 0 -20 -7
-20 -23 0 -32 18 -47 56 -47 43 0 56 19 52 77 -3 46 -4 48 -35 51 -29 3 -33 7
-33 33 0 19 5 29 15 29 8 0 15 -9 15 -20 0 -14 7 -20 21 -20 17 0 20 5 17 33
-3 31 -5 32 -51 35 -34 2 -49 -1 -53 -11z"/>
<path d="M490 301 c0 -98 2 -109 18 -107 14 3 17 14 17 65 0 52 2 59 12 44 7
-9 13 -23 13 -30 0 -26 31 -12 45 20 14 32 14 31 15 -35 0 -61 2 -68 20 -68
19 0 20 7 20 110 0 102 -1 110 -20 110 -13 0 -25 -14 -40 -47 l-21 -48 -21 48
c-14 32 -27 47 -39 47 -17 0 -19 -9 -19 -109z"/>
<path d="M714 383 c-3 -16 -15 -62 -25 -105 -23 -93 -23 -88 0 -88 13 0 21 8
23 23 5 34 45 36 54 3 4 -17 13 -26 26 -26 14 0 18 5 14 18 -3 9 -15 59 -26
110 -18 76 -25 92 -41 92 -12 0 -21 -9 -25 -27z m36 -78 c0 -14 -4 -25 -10
-25 -5 0 -10 11 -10 25 0 14 5 25 10 25 6 0 10 -11 10 -25z"/>
<path d="M830 299 c0 -100 2 -110 18 -107 13 2 18 16 22 61 l5 58 24 -61 c17
-45 28 -60 40 -58 13 3 16 20 19 111 3 102 2 107 -18 107 -18 0 -20 -6 -20
-62 l-1 -63 -26 63 c-18 45 -30 62 -44 62 -18 0 -19 -9 -19 -111z"/>
<path d="M1024 383 c-3 -16 -15 -62 -25 -105 -23 -92 -23 -88 -4 -88 9 0 20
11 25 25 6 15 17 25 30 25 13 0 22 -9 26 -25 4 -16 13 -25 26 -25 12 0 18 5
15 13 -2 6 -14 56 -26 110 -19 81 -26 97 -42 97 -12 0 -21 -9 -25 -27z m36
-78 c0 -14 -4 -25 -10 -25 -5 0 -10 11 -10 25 0 14 5 25 10 25 6 0 10 -11 10
-25z"/>
<path d="M1140 299 c0 -100 2 -110 18 -107 13 2 18 16 22 61 l5 58 24 -61 c17
-45 28 -60 40 -58 13 3 16 20 19 111 3 101 2 107 -17 107 -18 0 -20 -8 -23
-62 l-3 -63 -23 63 c-17 47 -28 62 -43 62 -18 0 -19 -8 -19 -111z"/>
<path d="M1290 395 c0 -8 9 -15 20 -15 18 0 20 -8 22 -92 3 -79 6 -93 21 -96
15 -3 17 6 17 92 0 95 0 96 25 96 18 0 23 4 19 15 -5 11 -22 15 -65 15 -46 0
-59 -3 -59 -15z"/>
<path d="M1437 303 c1 -89 4 -109 17 -111 14 -3 16 12 16 107 0 99 -2 111 -17
111 -16 0 -18 -11 -16 -107z"/>
<path d="M1519 308 c-13 -57 -23 -105 -22 -108 6 -17 32 -7 37 14 9 34 43 35
56 1 5 -14 16 -25 25 -25 18 0 18 -6 -1 77 -29 131 -34 143 -53 143 -14 0 -22
-20 -42 -102z m48 -27 c-15 -6 -20 8 -12 36 l8 28 6 -30 c4 -16 3 -32 -2 -34z"/>
<path d="M1650 299 l0 -110 52 3 c41 2 54 7 56 21 3 14 -4 17 -32 17 l-36 0 0
90 c0 83 -1 90 -20 90 -19 0 -20 -7 -20 -111z"/>
<path d="M1787 303 l2 -108 49 -3 c43 -3 50 -1 55 17 5 19 1 21 -34 21 -35 0
-39 2 -39 26 0 17 6 28 20 31 25 7 27 41 3 39 -13 -1 -19 7 -21 27 -3 25 -1
27 37 27 32 0 39 3 35 15 -4 11 -21 15 -58 15 l-51 0 2 -107z"/>
<path d="M1924 397 c-3 -8 -4 -34 -2 -58 3 -42 5 -44 36 -47 28 -3 32 -7 32
-33 0 -24 -4 -30 -17 -27 -10 2 -17 10 -15 16 1 7 -7 12 -18 12 -14 0 -20 -7
-20 -23 0 -32 18 -47 56 -47 43 0 56 19 52 77 -3 47 -4 48 -38 53 -29 4 -35 9
-35 30 0 16 6 26 18 28 12 2 17 -3 17 -17 0 -15 6 -21 21 -21 17 0 20 5 17 33
-3 31 -5 32 -51 35 -34 2 -49 -1 -53 -11z"/>
<path d="M2127 303 l1 -108 36 -3 c19 -2 45 2 56 8 19 10 20 19 18 108 l-3 97
-55 3 -55 3 2 -108z m73 1 c0 -66 -2 -75 -17 -72 -14 3 -19 15 -21 62 -4 68 1
86 23 86 12 0 15 -14 15 -76z"/>
<path d="M2270 300 l0 -111 52 3 c40 2 54 7 56 20 2 13 -5 17 -35 20 -33 3
-38 6 -38 28 0 18 5 25 18 24 11 -1 17 5 17 21 0 16 -6 22 -17 21 -13 -1 -18
6 -18 24 0 22 5 25 38 28 56 5 41 26 -21 30 l-52 3 0 -111z"/>
<path d="M2397 303 l1 -108 46 -3 c37 -3 47 1 56 17 10 20 8 21 -30 21 l-40 0
0 90 c0 79 -2 90 -17 90 -16 0 -18 -11 -16 -107z"/>
<path d="M2604 397 c-3 -8 -4 -34 -2 -58 3 -42 5 -44 36 -47 28 -3 32 -7 32
-33 0 -19 -5 -29 -15 -29 -8 0 -15 7 -15 15 0 8 -9 15 -20 15 -14 0 -20 -7
-20 -23 0 -32 18 -47 56 -47 43 0 56 19 52 77 -3 46 -4 48 -38 53 -29 4 -34 9
-34 30 0 16 6 26 17 28 12 2 17 -3 17 -17 0 -15 6 -21 21 -21 17 0 20 5 17 33
-3 31 -5 32 -51 35 -34 2 -49 -1 -53 -11z"/>
<path d="M2740 305 l0 -105 26 -6 c15 -4 39 -3 53 2 25 9 26 12 29 112 3 97 2
102 -18 102 -19 0 -20 -6 -20 -91 0 -81 -2 -90 -17 -87 -15 3 -18 17 -21 91
-2 68 -6 87 -17 87 -12 0 -15 -20 -15 -105z"/>
<path d="M2880 300 c0 -101 2 -111 18 -108 10 2 16 11 14 22 -5 27 7 68 17 61
5 -3 12 -23 16 -45 6 -36 22 -50 37 -34 3 3 2 21 -3 42 -5 22 -4 41 2 48 6 7
9 36 7 66 l-3 53 -52 3 -53 3 0 -111z m70 45 c0 -41 -26 -49 -36 -11 -7 29 1
46 22 46 9 0 14 -11 14 -35z"/>
</g>
</svg>
