<?xml version="1.0" standalone="no"?>
<!DOCTYPE svg PUBLIC "-//W3C//DTD SVG 20010904//EN"
 "http://www.w3.org/TR/2001/REC-SVG-20010904/DTD/svg10.dtd">
<svg version="1.0" xmlns="http://www.w3.org/2000/svg"
 width="279.000000pt" height="276.000000pt" viewBox="0 0 279.000000 276.000000"
 preserveAspectRatio="xMidYMid meet">

<g transform="translate(0.000000,276.000000) scale(0.100000,-0.100000)"
fill="#0296EA" stroke="none">
<path d="M1210 2709 c0 -5 5 -7 10 -4 6 3 10 8 10 11 0 2 -4 4 -10 4 -5 0 -10
-5 -10 -11z"/>
<path d="M1153 2683 c-12 -2 -24 -11 -27 -19 -4 -11 0 -13 22 -8 34 9 42 13
42 25 0 5 -3 8 -7 8 -5 -1 -18 -4 -30 -6z"/>
<path d="M965 2670 c-3 -5 -2 -10 4 -10 5 0 13 5 16 10 3 6 2 10 -4 10 -5 0
-13 -4 -16 -10z"/>
<path d="M1512 2659 c6 -19 78 -31 78 -12 0 7 -11 13 -24 13 -13 0 -32 3 -42
7 -12 4 -15 2 -12 -8z"/>
<path d="M930 2650 c0 -5 5 -10 10 -10 6 0 10 5 10 10 0 6 -4 10 -10 10 -5 0
-10 -4 -10 -10z"/>
<path d="M1237 2649 c7 -7 15 -10 18 -7 3 3 -2 9 -12 12 -14 6 -15 5 -6 -5z"/>
<path d="M1090 2629 c0 -5 5 -7 10 -4 6 3 10 8 10 11 0 2 -4 4 -10 4 -5 0 -10
-5 -10 -11z"/>
<path d="M1870 2630 c0 -5 5 -10 11 -10 5 0 7 5 4 10 -3 6 -8 10 -11 10 -2 0
-4 -4 -4 -10z"/>
<path d="M1907 2592 c3 -9 17 -27 32 -39 l28 -22 -2 22 c-1 12 -9 23 -18 25
-9 2 -17 7 -17 12 0 4 -6 10 -14 13 -9 4 -12 0 -9 -11z"/>
<path d="M860 2585 c-7 -9 -8 -15 -2 -15 5 0 12 7 16 15 3 8 4 15 2 15 -2 0
-9 -7 -16 -15z"/>
<path d="M1030 2590 c0 -5 5 -10 10 -10 6 0 10 5 10 10 0 6 -4 10 -10 10 -5 0
-10 -4 -10 -10z"/>
<path d="M960 2550 c-9 -6 -10 -10 -3 -10 6 0 15 5 18 10 8 12 4 12 -15 0z"/>
<path d="M2055 2550 c3 -5 11 -10 16 -10 6 0 7 5 4 10 -3 6 -11 10 -16 10 -6
0 -7 -4 -4 -10z"/>
<path d="M810 2530 c-13 -11 -27 -20 -32 -20 -4 0 -8 -7 -8 -15 0 -8 3 -15 8
-15 13 1 49 34 55 53 8 22 5 21 -23 -3z"/>
<path d="M2095 2530 c3 -5 8 -10 11 -10 2 0 4 5 4 10 0 6 -5 10 -11 10 -5 0
-7 -4 -4 -10z"/>
<path d="M2120 2516 c0 -2 8 -10 18 -17 15 -13 16 -12 3 4 -13 16 -21 21 -21
13z"/>
<path d="M2011 2473 c36 -41 92 -93 96 -89 4 3 -108 116 -115 116 -3 0 5 -12
19 -27z"/>
<path d="M610 2469 c0 -5 5 -7 10 -4 6 3 10 8 10 11 0 2 -4 4 -10 4 -5 0 -10
-5 -10 -11z"/>
<path d="M2166 2455 c9 -14 19 -24 21 -21 6 6 -20 46 -30 46 -4 0 0 -11 9 -25z"/>
<path d="M532 2417 c-12 -13 -22 -27 -22 -32 0 -4 11 4 26 20 14 15 23 29 21
31 -2 2 -13 -6 -25 -19z"/>
<path d="M675 2390 c-3 -5 -1 -10 4 -10 6 0 11 5 11 10 0 6 -2 10 -4 10 -3 0
-8 -4 -11 -10z"/>
<path d="M645 2370 c-3 -5 -1 -10 4 -10 6 0 11 5 11 10 0 6 -2 10 -4 10 -3 0
-8 -4 -11 -10z"/>
<path d="M2125 2370 c3 -5 11 -10 16 -10 6 0 7 5 4 10 -3 6 -11 10 -16 10 -6
0 -7 -4 -4 -10z"/>
<path d="M490 2359 c0 -5 5 -7 10 -4 6 3 10 8 10 11 0 2 -4 4 -10 4 -5 0 -10
-5 -10 -11z"/>
<path d="M2165 2350 c3 -5 8 -10 11 -10 2 0 4 5 4 10 0 6 -5 10 -11 10 -5 0
-7 -4 -4 -10z"/>
<path d="M2216 2342 c-7 -11 42 -54 54 -47 15 9 12 25 -5 25 -8 0 -15 4 -15 9
0 12 -28 22 -34 13z"/>
<path d="M463 2305 c-13 -14 -18 -45 -7 -45 8 0 43 43 44 53 0 12 -24 7 -37
-8z"/>
<path d="M415 2270 c-3 -5 -1 -10 4 -10 6 0 11 5 11 10 0 6 -2 10 -4 10 -3 0
-8 -4 -11 -10z"/>
<path d="M2390 2257 c0 -2 18 -24 40 -47 42 -44 57 -44 17 0 -25 29 -57 55
-57 47z"/>
<path d="M2290 2223 c0 -11 91 -106 96 -100 2 2 -19 27 -46 56 -28 29 -50 49
-50 44z"/>
<path d="M1666 2176 c-25 -31 -59 -56 -113 -82 -92 -45 -187 -134 -223 -209
-19 -40 -24 -67 -24 -135 -1 -81 1 -87 34 -135 39 -58 38 -56 110 -115 30 -25
68 -58 83 -75 63 -67 85 -167 50 -226 -31 -51 -2 -45 50 11 72 78 117 174 117
254 0 71 -22 109 -128 216 -58 58 -115 122 -128 142 -27 42 -32 108 -12 155
14 32 57 83 71 83 5 0 38 -26 72 -59 42 -38 75 -61 97 -65 102 -19 233 64 284
181 28 63 28 63 11 63 -7 0 -23 -14 -36 -31 -27 -36 -78 -69 -107 -69 -40 0
-85 32 -121 86 -20 30 -39 54 -43 54 -4 0 -24 -20 -44 -44z m-116 -582 c0 -9
-5 -14 -12 -12 -18 6 -21 28 -4 28 9 0 16 -7 16 -16z m137 -56 c30 -28 31 -96
2 -172 -25 -68 -35 -76 -50 -39 -25 61 -36 79 -81 129 -53 57 -56 64 -30 64
10 0 23 5 30 12 6 6 15 8 19 3 5 -4 2 -10 -4 -12 -16 -6 -17 -43 -1 -43 6 0
26 18 45 40 19 22 37 40 41 40 3 0 16 -10 29 -22z"/>
<path d="M1610 1435 c0 -8 5 -15 10 -15 6 0 10 7 10 15 0 8 -4 15 -10 15 -5 0
-10 -7 -10 -15z"/>
<path d="M335 2200 c-3 -5 -1 -10 4 -10 6 0 11 5 11 10 0 6 -2 10 -4 10 -3 0
-8 -4 -11 -10z"/>
<path d="M317 2173 c-4 -3 -7 -11 -7 -17 0 -6 5 -5 12 2 6 6 9 14 7 17 -3 3
-9 2 -12 -2z"/>
<path d="M415 2130 c-3 -5 -1 -10 4 -10 6 0 11 5 11 10 0 6 -2 10 -4 10 -3 0
-8 -4 -11 -10z"/>
<path d="M397 2093 c-4 -3 -7 -11 -7 -17 0 -6 5 -5 12 2 6 6 9 14 7 17 -3 3
-9 2 -12 -2z"/>
<path d="M2430 2090 c0 -5 5 -10 11 -10 5 0 7 5 4 10 -3 6 -8 10 -11 10 -2 0
-4 -4 -4 -10z"/>
<path d="M2460 2074 c0 -8 49 -54 58 -54 6 0 22 -14 37 -31 14 -17 28 -29 30
-27 3 3 -12 22 -33 44 -21 21 -41 45 -43 53 -4 12 -49 25 -49 15z"/>
<path d="M352 2029 c-23 -28 -22 -41 1 -16 26 27 39 47 31 46 -5 0 -19 -13
-32 -30z"/>
<path d="M273 1963 c-3 -13 -9 -23 -13 -23 -4 0 -10 -6 -13 -14 -4 -10 0 -12
15 -8 11 2 22 12 26 21 3 9 14 23 24 32 18 16 18 17 -7 15 -18 -1 -28 -8 -32
-23z"/>
<path d="M1837 1903 c-8 -8 -8 -154 1 -281 6 -79 4 -99 -12 -133 -19 -40 -19
-40 3 -63 21 -22 21 -30 19 -212 -3 -188 -3 -189 -26 -192 -29 -4 -135 30
-226 73 -150 70 -180 80 -267 94 -111 18 -152 15 -299 -22 -95 -23 -211 -100
-252 -165 -72 -115 -61 -215 33 -314 130 -136 367 -154 537 -42 69 45 147 154
122 169 -5 3 -14 -4 -21 -17 -28 -52 -102 -118 -155 -138 -81 -30 -271 -29
-363 2 -79 27 -149 91 -170 155 -31 93 34 191 152 232 47 16 224 16 263 0 16
-6 38 -15 49 -20 11 -4 70 -31 130 -59 61 -28 119 -55 130 -59 38 -15 70 -29
98 -40 49 -19 193 -14 261 10 75 27 108 48 169 113 40 42 117 155 117 172 0
16 -29 -5 -85 -61 -43 -42 -78 -68 -105 -76 -67 -20 -70 -13 -70 183 0 156 2
173 22 209 l22 39 -24 49 c-20 44 -22 59 -16 123 17 179 18 235 7 256 -12 22
-31 28 -44 15z m-442 -767 c28 -10 86 -35 130 -56 130 -62 291 -106 367 -100
13 1 29 2 37 1 25 -2 -10 -33 -69 -59 -47 -22 -70 -26 -155 -26 -95 0 -104 1
-175 36 -248 119 -386 168 -475 168 -51 0 -59 13 -17 27 15 6 41 15 57 21 46
17 241 9 300 -12z"/>
<path d="M183 1863 c-18 -20 -31 -39 -28 -41 4 -5 64 60 65 71 0 11 -3 9 -37
-30z"/>
<path d="M135 1800 c-3 -5 -1 -10 4 -10 6 0 11 5 11 10 0 6 -2 10 -4 10 -3 0
-8 -4 -11 -10z"/>
<path d="M2530 1780 c0 -5 5 -10 11 -10 5 0 7 5 4 10 -3 6 -8 10 -11 10 -2 0
-4 -4 -4 -10z"/>
<path d="M235 1760 c-3 -5 -1 -10 4 -10 6 0 11 5 11 10 0 6 -2 10 -4 10 -3 0
-8 -4 -11 -10z"/>
<path d="M195 1690 c-3 -5 -1 -10 4 -10 6 0 11 5 11 10 0 6 -2 10 -4 10 -3 0
-8 -4 -11 -10z"/>
<path d="M2594 1659 c5 -21 16 -39 22 -39 7 0 14 -6 17 -12 2 -7 8 -9 13 -5 5
4 4 11 -2 15 -6 4 -16 21 -23 39 -20 49 -40 51 -27 2z"/>
<path d="M177 1663 c-4 -3 -7 -11 -7 -17 0 -6 5 -5 12 2 6 6 9 14 7 17 -3 3
-9 2 -12 -2z"/>
<path d="M130 1601 c0 -11 -3 -27 -6 -35 -4 -12 -2 -15 9 -10 19 7 29 64 10
64 -7 0 -13 -9 -13 -19z"/>
<path d="M2650 1583 c0 -5 10 -19 21 -33 l20 -25 -16 33 c-15 30 -25 41 -25
25z"/>
<path d="M150 1531 c0 -6 5 -13 10 -16 6 -3 10 1 10 9 0 9 -4 16 -10 16 -5 0
-10 -4 -10 -9z"/>
<path d="M2697 1373 c-4 -3 -7 -11 -7 -17 0 -6 5 -5 12 2 6 6 9 14 7 17 -3 3
-9 2 -12 -2z"/>
<path d="M115 1310 c3 -5 8 -10 11 -10 2 0 4 5 4 10 0 6 -5 10 -11 10 -5 0 -7
-4 -4 -10z"/>
<path d="M2644 1302 c4 -11 2 -30 -3 -41 -8 -14 -7 -20 3 -24 28 -11 35 45 10
71 -15 15 -16 14 -10 -6z"/>
<path d="M130 1270 c0 -5 5 -10 10 -10 6 0 10 5 10 10 0 6 -4 10 -10 10 -5 0
-10 -4 -10 -10z"/>
<path d="M166 1212 c10 -46 13 -52 27 -52 11 0 12 7 3 35 -13 43 -39 58 -30
17z"/>
<path d="M2602 1200 c-7 -11 -9 -20 -4 -20 4 0 13 9 20 20 7 11 9 20 4 20 -4
0 -13 -9 -20 -20z"/>
<path d="M2570 1149 c0 -5 5 -7 10 -4 6 3 10 8 10 11 0 2 -4 4 -10 4 -5 0 -10
-5 -10 -11z"/>
<path d="M210 1141 c0 -5 5 -13 10 -16 6 -3 10 -2 10 4 0 5 -4 13 -10 16 -5 3
-10 2 -10 -4z"/>
<path d="M2555 1120 c-3 -5 -1 -10 4 -10 6 0 11 5 11 10 0 6 -2 10 -4 10 -3 0
-8 -4 -11 -10z"/>
<path d="M250 1051 c0 -5 5 -13 10 -16 6 -3 10 -2 10 4 0 5 -4 13 -10 16 -5 3
-10 2 -10 -4z"/>
<path d="M2635 1050 c-3 -5 -1 -10 4 -10 6 0 11 5 11 10 0 6 -2 10 -4 10 -3 0
-8 -4 -11 -10z"/>
<path d="M2588 987 c-20 -23 -34 -44 -32 -46 4 -5 73 71 74 82 0 12 -3 9 -42
-36z"/>
<path d="M170 950 c0 -5 5 -10 11 -10 5 0 7 5 4 10 -3 6 -8 10 -11 10 -2 0 -4
-4 -4 -10z"/>
<path d="M2500 908 c-10 -18 -17 -35 -14 -38 7 -6 54 47 54 61 0 20 -21 8 -40
-23z"/>
<path d="M190 914 c0 -7 27 -34 34 -34 4 0 1 9 -6 20 -12 19 -28 27 -28 14z"/>
<path d="M267 854 c-9 -10 15 -54 30 -54 7 0 13 5 13 10 0 6 -4 10 -10 10 -5
0 -10 6 -10 14 0 17 -14 29 -23 20z"/>
<path d="M2445 847 c-31 -38 -37 -47 -29 -46 5 0 19 13 32 30 13 16 20 29 15
29 -4 -1 -12 -6 -18 -13z"/>
<path d="M2397 783 c-4 -3 -7 -11 -7 -17 0 -6 5 -5 12 2 6 6 9 14 7 17 -3 3
-9 2 -12 -2z"/>
<path d="M350 772 c0 -4 9 -13 20 -20 11 -7 20 -9 20 -4 0 4 -9 13 -20 20 -11
7 -20 9 -20 4z"/>
<path d="M430 716 c0 -4 11 -18 24 -31 13 -12 33 -40 46 -60 12 -20 24 -34 27
-31 3 2 -8 24 -25 48 -30 44 -72 87 -72 74z"/>
<path d="M2470 709 c0 -5 5 -7 10 -4 6 3 10 8 10 11 0 2 -4 4 -10 4 -5 0 -10
-5 -10 -11z"/>
<path d="M310 690 c0 -5 5 -10 11 -10 5 0 7 5 4 10 -3 6 -8 10 -11 10 -2 0 -4
-4 -4 -10z"/>
<path d="M2414 634 c-46 -48 -43 -61 2 -16 38 36 59 62 48 61 -5 -1 -28 -21
-50 -45z"/>
<path d="M330 663 c0 -5 9 -18 20 -28 11 -10 20 -15 20 -11 0 4 -9 16 -20 28
-11 12 -20 17 -20 11z"/>
<path d="M2335 630 c-3 -5 -1 -10 4 -10 6 0 11 5 11 10 0 6 -2 10 -4 10 -3 0
-8 -4 -11 -10z"/>
<path d="M380 610 c0 -5 5 -10 11 -10 5 0 7 5 4 10 -3 6 -8 10 -11 10 -2 0 -4
-4 -4 -10z"/>
<path d="M2316 575 c-8 -8 -19 -15 -25 -15 -6 0 -11 -4 -11 -10 0 -17 36 -11
53 8 29 32 13 47 -17 17z"/>
<path d="M450 570 c0 -5 5 -10 11 -10 5 0 7 5 4 10 -3 6 -8 10 -11 10 -2 0 -4
-4 -4 -10z"/>
<path d="M530 553 c1 -19 47 -59 57 -49 6 6 -38 65 -49 65 -5 1 -8 -7 -8 -16z"/>
<path d="M640 490 c0 -5 5 -10 11 -10 5 0 7 5 4 10 -3 6 -8 10 -11 10 -2 0 -4
-4 -4 -10z"/>
<path d="M675 470 c3 -5 8 -10 11 -10 2 0 4 5 4 10 0 6 -5 10 -11 10 -5 0 -7
-4 -4 -10z"/>
<path d="M2055 435 c-15 -14 -26 -27 -24 -29 2 -2 17 7 33 20 15 14 26 27 24
29 -2 2 -17 -7 -33 -20z"/>
<path d="M2236 434 c-15 -14 -26 -27 -24 -29 2 -3 17 9 33 25 35 36 30 39 -9
4z"/>
<path d="M595 440 c3 -5 8 -10 11 -10 2 0 4 5 4 10 0 6 -5 10 -11 10 -5 0 -7
-4 -4 -10z"/>
<path d="M737 415 c10 -13 22 -25 27 -25 5 0 -1 11 -14 25 -30 32 -36 32 -13
0z"/>
<path d="M2175 390 c-3 -5 -1 -10 4 -10 6 0 11 5 11 10 0 6 -2 10 -4 10 -3 0
-8 -4 -11 -10z"/>
<path d="M791 353 c13 -16 25 -30 27 -32 1 -2 4 -2 7 0 5 6 -40 59 -50 59 -5
0 2 -12 16 -27z"/>
<path d="M1972 350 c-23 -22 -29 -40 -12 -40 6 0 10 4 10 8 0 5 12 14 26 20
14 7 22 17 19 22 -9 15 -19 12 -43 -10z"/>
<path d="M655 350 c3 -5 8 -10 11 -10 2 0 4 5 4 10 0 6 -5 10 -11 10 -5 0 -7
-4 -4 -10z"/>
<path d="M720 310 c0 -5 5 -10 11 -10 5 0 7 5 4 10 -3 6 -8 10 -11 10 -2 0 -4
-4 -4 -10z"/>
<path d="M830 297 c0 -7 14 -21 30 -30 36 -22 41 -4 8 24 -27 22 -38 24 -38 6z"/>
<path d="M1785 290 c-3 -5 -2 -10 4 -10 5 0 13 5 16 10 3 6 2 10 -4 10 -5 0
-13 -4 -16 -10z"/>
<path d="M1902 262 c-18 -19 -31 -36 -29 -38 4 -5 77 61 77 70 0 13 -16 2 -48
-32z"/>
<path d="M1750 269 c0 -5 5 -7 10 -4 6 3 10 8 10 11 0 2 -4 4 -10 4 -5 0 -10
-5 -10 -11z"/>
<path d="M1145 250 c3 -5 8 -10 11 -10 2 0 4 5 4 10 0 6 -5 10 -11 10 -5 0 -7
-4 -4 -10z"/>
<path d="M1690 230 c0 -5 5 -10 10 -10 6 0 10 5 10 10 0 6 -4 10 -10 10 -5 0
-10 -4 -10 -10z"/>
<path d="M930 213 c0 -7 33 -32 43 -33 16 0 5 16 -18 27 -14 6 -25 9 -25 6z"/>
<path d="M1210 210 c0 -5 6 -10 13 -10 6 0 22 -3 35 -6 18 -5 21 -3 16 10 -7
17 -64 23 -64 6z"/>
<path d="M1633 199 c-37 -11 -47 -35 -10 -25 12 3 27 6 33 6 7 0 14 7 18 15 6
17 4 17 -41 4z"/>
<path d="M1810 189 c0 -5 5 -7 10 -4 6 3 10 8 10 11 0 2 -4 4 -10 4 -5 0 -10
-5 -10 -11z"/>
<path d="M1295 170 c3 -5 8 -10 11 -10 2 0 4 5 4 10 0 6 -5 10 -11 10 -5 0 -7
-4 -4 -10z"/>
<path d="M1708 173 c7 -3 16 -2 19 1 4 3 -2 6 -13 5 -11 0 -14 -3 -6 -6z"/>
</g>
</svg>
